<svg width="24" height="23" viewBox="0 0 24 23" fill="none" xmlns="http://www.w3.org/2000/svg">
<path d="M14.2969 11.4127C14.2969 12.6192 13.2686 13.5972 12 13.5972C10.7314 13.5972 9.70312 12.6192 9.70312 11.4127C9.70312 10.2063 10.7314 9.22827 12 9.22827C13.2686 9.22827 14.2969 10.2063 14.2969 11.4127Z" fill="white"/>
<path d="M17.3716 7.54787C17.2612 7.26331 17.0851 7.00575 16.8562 6.79434C16.6339 6.57665 16.3633 6.40913 16.0639 6.30412C15.8211 6.21443 15.4563 6.10768 14.7845 6.0786C14.0578 6.04707 13.8399 6.04028 12 6.04028C10.16 6.04028 9.9421 6.0469 9.21553 6.07842C8.54371 6.10768 8.17878 6.21443 7.93617 6.30412C7.63679 6.40913 7.36597 6.57665 7.14386 6.79434C6.91498 7.00575 6.73883 7.26314 6.62824 7.54787C6.53394 7.77879 6.42169 8.12586 6.39111 8.76481C6.35797 9.45582 6.35083 9.66305 6.35083 11.4131C6.35083 13.1629 6.35797 13.3701 6.39111 14.0613C6.42169 14.7002 6.53394 15.0471 6.62824 15.2781C6.73883 15.5628 6.9148 15.8202 7.14368 16.0316C7.36597 16.2493 7.6366 16.4168 7.93598 16.5218C8.17878 16.6117 8.54371 16.7184 9.21553 16.7475C9.9421 16.779 10.1598 16.7856 11.9998 16.7856C13.8401 16.7856 14.058 16.779 14.7843 16.7475C15.4562 16.7184 15.8211 16.6117 16.0639 16.5218C16.6649 16.3013 17.1398 15.8496 17.3716 15.2781C17.4659 15.0471 17.5782 14.7002 17.6089 14.0613C17.6421 13.3701 17.649 13.1629 17.649 11.4131C17.649 9.66305 17.6421 9.45582 17.6089 8.76481C17.5784 8.12586 17.4661 7.77879 17.3716 7.54787ZM12 14.7781C10.0457 14.7781 8.4615 13.2715 8.4615 11.4129C8.4615 9.55421 10.0457 8.04767 12 8.04767C13.9541 8.04767 15.5384 9.55421 15.5384 11.4129C15.5384 13.2715 13.9541 14.7781 12 14.7781ZM15.6783 8.70107C15.2216 8.70107 14.8514 8.34894 14.8514 7.91462C14.8514 7.4803 15.2216 7.12818 15.6783 7.12818C16.1349 7.12818 16.5052 7.4803 16.5052 7.91462C16.505 8.34894 16.1349 8.70107 15.6783 8.70107Z" fill="white"/>
<path d="M12 0C5.3736 0 0 5.11067 0 11.4128C0 17.715 5.3736 22.8257 12 22.8257C18.6264 22.8257 24 17.715 24 11.4128C24 5.11067 18.6264 0 12 0ZM18.8491 14.1147C18.8157 14.8123 18.6991 15.2886 18.5288 15.7055C18.1708 16.5859 17.4391 17.2817 16.5135 17.6222C16.0754 17.7842 15.5744 17.8949 14.8411 17.9268C14.1063 17.9586 13.8715 17.9663 12.0002 17.9663C10.1287 17.9663 9.8941 17.9586 9.15912 17.9268C8.42578 17.8949 7.9248 17.7842 7.48663 17.6222C7.02667 17.4576 6.61029 17.1997 6.26605 16.8662C5.91559 16.539 5.64441 16.1428 5.47137 15.7055C5.30109 15.2888 5.18445 14.8123 5.15112 14.1149C5.11725 13.4159 5.10938 13.1926 5.10938 11.4128C5.10938 9.63307 5.11725 9.40981 5.15094 8.71096C5.18427 8.01333 5.30072 7.53705 5.47101 7.12014C5.64404 6.68286 5.9154 6.28668 6.26605 5.95946C6.61011 5.62597 7.02667 5.36805 7.48645 5.20349C7.9248 5.04153 8.4256 4.93077 9.15912 4.89891C9.89392 4.86704 10.1287 4.85937 12 4.85937C13.8713 4.85937 14.1061 4.86704 14.8409 4.89908C15.5744 4.93077 16.0752 5.04153 16.5135 5.20331C16.9733 5.36788 17.3899 5.62597 17.7341 5.95946C18.0846 6.28685 18.356 6.68286 18.5288 7.12014C18.6993 7.53705 18.8157 8.01333 18.8492 8.71096C18.8828 9.40981 18.8906 9.63307 18.8906 11.4128C18.8906 13.1926 18.8827 13.4159 18.8491 14.1147Z" fill="white"/>
</svg>
