<svg width="24" height="24" viewBox="0 0 24 24" fill="none" xmlns="http://www.w3.org/2000/svg">
<path d="M12 0C5.3832 0 0 3.78506 0 8.4375C0 10.0094 0.619267 11.5434 1.79127 12.8743L11.3169 23.6676C11.4994 23.8744 11.8209 24 12.1666 24C12.1693 24 12.1719 24 12.1745 24C12.5233 23.9981 12.8454 23.8686 13.0245 23.6582L22.3074 12.7603C23.4147 11.4576 24 9.96277 24 8.4375C24 3.78506 18.6168 0 12 0ZM20.5911 12.0383L12.1515 21.9462L3.49113 12.1334C2.5156 11.0257 1.98667 9.74766 1.98667 8.4375C1.98667 4.56047 6.486 1.39687 12 1.39687C17.514 1.39687 22.0067 4.56047 22.0067 8.4375C22.0067 9.7088 21.5126 10.9541 20.5911 12.0383Z" fill="white"/>
<path d="M12 4.21887C8.6916 4.21887 6 6.1114 6 8.43762C6 10.749 8.6478 12.6564 12 12.6564C15.3935 12.6564 18 10.7236 18 8.43762C18 6.1114 15.3084 4.21887 12 4.21887ZM12 11.2595C9.78287 11.2595 7.98667 9.99233 7.98667 8.43762C7.98667 6.88681 9.7944 5.61575 12 5.61575C14.2056 5.61575 16.0067 6.88681 16.0067 8.43762C16.0067 9.96964 14.2523 11.2595 12 11.2595Z" fill="white"/>
</svg>
