<svg width="24" height="24" viewBox="0 0 24 24" fill="none" xmlns="http://www.w3.org/2000/svg">
<path d="M17.2488 24C16.4741 24 15.7059 23.863 14.9548 23.5901C11.6456 22.388 8.574 20.4301 6.0719 17.9281C3.5698 15.4261 1.61191 12.3544 0.40984 9.04529C0.0235568 7.98183 -0.0904391 6.88406 0.0711332 5.78236C0.222487 4.7504 0.622223 3.74858 1.22717 2.88518C1.83479 2.01798 2.64485 1.2967 3.56976 0.799327C4.55606 0.268958 5.6326 0 6.76956 0C7.12317 0 7.42879 0.247068 7.50289 0.592804L8.68007 6.08628C8.73337 6.33504 8.65692 6.59387 8.47706 6.77377L6.46559 8.78519C8.36311 12.5578 11.4421 15.6368 15.2148 17.5343L17.2262 15.5229C17.4061 15.343 17.665 15.2667 17.9137 15.3199L23.4072 16.497C23.753 16.5711 24 16.8767 24 17.2304C24 18.3673 23.731 19.4439 23.2006 20.4302C22.7032 21.3551 21.982 22.1652 21.1148 22.7728C20.2514 23.3777 19.2496 23.7774 18.2176 23.9288C17.8942 23.9763 17.5709 24 17.2488 24V24ZM6.17033 1.53275C4.67062 1.69831 3.33951 2.48437 2.45558 3.74596C1.46158 5.16457 1.22979 6.90942 1.81965 8.5332C4.13069 14.8951 9.10493 19.8693 15.4669 22.1803C17.0906 22.7702 18.8355 22.5385 20.2541 21.5444C21.5157 20.6605 22.3018 19.3294 22.4673 17.8297L17.9984 16.8721L15.8977 18.9727C15.6742 19.1963 15.3345 19.2556 15.0485 19.1212C10.5866 17.0251 6.97496 13.4134 4.87879 8.95154C4.7444 8.66547 4.80374 8.32583 5.02728 8.10234L7.12796 6.00168L6.17033 1.53275Z" fill="white"/>
</svg>
