<svg width="24" height="23" viewBox="0 0 24 23" fill="none" xmlns="http://www.w3.org/2000/svg">
<path d="M12 0C5.3736 0 0 5.11067 0 11.4128C0 17.715 5.3736 22.8257 12 22.8257C18.6264 22.8257 24 17.715 24 11.4128C24 5.11067 18.6264 0 12 0ZM17.4791 8.89852C17.4844 9.01084 17.4869 9.12369 17.4869 9.23706C17.4869 12.6986 14.7166 16.6902 9.65021 16.6903H9.65039H9.65021C8.09473 16.6903 6.64728 16.2567 5.42834 15.5136C5.64386 15.5378 5.86322 15.5499 6.08533 15.5499C7.37585 15.5499 8.56348 15.1312 9.50629 14.4285C8.30054 14.4073 7.28394 13.6499 6.93311 12.6091C7.10101 12.6397 7.27368 12.6564 7.45074 12.6564C7.70215 12.6564 7.94568 12.6242 8.17712 12.5641C6.91681 12.3241 5.96741 11.2648 5.96741 9.99634C5.96741 9.9845 5.96741 9.97387 5.96777 9.9629C6.33893 10.1592 6.76337 10.2772 7.21527 10.2905C6.47571 9.82115 5.98956 9.01886 5.98956 8.10999C5.98956 7.63004 6.12598 7.18039 6.36255 6.79327C7.72083 8.37835 9.75073 9.42078 12.0399 9.53032C11.9927 9.33841 11.9683 9.13849 11.9683 8.933C11.9683 7.48689 13.2019 6.31367 14.723 6.31367C15.5153 6.31367 16.2308 6.63218 16.7335 7.14139C17.361 7.02366 17.9502 6.80563 18.4825 6.50558C18.2765 7.117 17.84 7.63004 17.2712 7.95447C17.8284 7.89108 18.3594 7.75055 18.8529 7.54192C18.4843 8.06732 18.0168 8.52881 17.4791 8.89852Z" fill="white"/>
</svg>
