<svg width="24" height="23" viewBox="0 0 24 23" fill="none" xmlns="http://www.w3.org/2000/svg">
<path d="M24 11.4128C24 5.10903 18.6281 0 12 0C5.37188 0 0 5.10903 0 11.4128C0 17.7167 5.37188 22.8257 12 22.8257C12.0703 22.8257 12.1406 22.8257 12.2109 22.8212V13.9406H9.63281V11.0829H12.2109V8.9787C12.2109 6.54009 13.7766 5.21157 16.0641 5.21157C17.1609 5.21157 18.1031 5.28736 18.375 5.32302V7.87308H16.8C15.5578 7.87308 15.3141 8.4348 15.3141 9.25956V11.0785H18.2906L17.9016 13.9361H15.3141V22.3843C20.3297 21.0157 24 16.6244 24 11.4128Z" fill="white"/>
</svg>
